<mxfile host="app.diagrams.net" modified="2024-07-18T16:33:01.060Z" agent="Mozilla/5.0 (X11; Linux x86_64) AppleWebKit/537.36 (KHTML, like Gecko) Chrome/126.0.0.0 Safari/537.36" version="24.7.1" etag="yIx-V-n7Cc5GMkuMrqHL" type="github">
  <diagram name="Page-1" id="G-23F4FbYuE94EozWvH8">
    <mxGraphModel>
      <root>
        <mxCell id="0" />
        <mxCell id="1" parent="0" />
      </root>
    </mxGraphModel>
  </diagram>
</mxfile>
